HIERARCHY
ROOT Hips
{
	OFFSET 0.000000 0.000000 0.000000
	CHANNELS 6 Xposition Yposition Zposition Xrotation Yrotation Zrotation
	JOINT LeftUpLeg_virtual
	{
		OFFSET 0.000000 0.000000 0.000000
		CHANNELS 3 Xrotation Yrotation Zrotation
		JOINT LeftUpLeg
		{
			OFFSET 15.427100 -6.655098 0.678600
			CHANNELS 3 Xrotation Yrotation Zrotation
			JOINT LeftLeg
			{
				OFFSET 4.081073 -39.591068 13.024000
				CHANNELS 3 Xrotation Yrotation Zrotation
				JOINT LeftFoot
				{
					OFFSET -4.081074 -37.707932 -15.979700
					CHANNELS 3 Xrotation Yrotation Zrotation
					JOINT LeftToeBase
					{
						OFFSET 5.346399 -15.068900 20.645000
						CHANNELS 3 Xrotation Yrotation Zrotation
						JOINT LeftToe_End
						{
							OFFSET 2.754700 0.931300 11.300900
							CHANNELS 3 Xrotation Yrotation Zrotation
							End Site
							{
								OFFSET 0 0 0
							}
						}
					}
				}
			}
		}
	}
	JOINT RightUpLeg_virtual
	{
		OFFSET 0.000000 0.000000 0.000000
		CHANNELS 3 Xrotation Yrotation Zrotation
		JOINT RightUpLeg
		{
			OFFSET -15.569500 -6.655098 0.678600
			CHANNELS 3 Xrotation Yrotation Zrotation
			JOINT RightLeg
			{
				OFFSET -4.081825 -39.591045 13.023800
				CHANNELS 3 Xrotation Yrotation Zrotation
				JOINT RightFoot
				{
					OFFSET 4.081824 -37.707954 -15.979600
					CHANNELS 3 Xrotation Yrotation Zrotation
					JOINT RightToeBase
					{
						OFFSET -5.346400 -15.068900 20.645000
						CHANNELS 3 Xrotation Yrotation Zrotation
						JOINT RightToe_End
						{
							OFFSET -2.754700 0.931300 11.300900
							CHANNELS 3 Xrotation Yrotation Zrotation
							End Site
							{
								OFFSET 0 0 0
							}
						}
					}
				}
			}
		}
	}
	JOINT Spine_virtual
	{
		OFFSET 0.000000 0.000000 0.000000
		CHANNELS 3 Xrotation Yrotation Zrotation
		JOINT Spine
		{
			OFFSET -0.279200 12.230698 -2.892100
			CHANNELS 3 Xrotation Yrotation Zrotation
			JOINT Spine1
			{
				OFFSET -0.232667 10.192268 -1.242267
				CHANNELS 3 Xrotation Yrotation Zrotation
				JOINT Spine1_split
				{
					OFFSET -0.232667 10.192268 -1.242267
					CHANNELS 3 Xrotation Yrotation Zrotation
					JOINT Spine2
					{
						OFFSET -0.232667 10.192268 -1.242267
						CHANNELS 3 Xrotation Yrotation Zrotation
						JOINT Neck_virtual
						{
							OFFSET 0.000000 0.000000 0.000000
							CHANNELS 3 Xrotation Yrotation Zrotation
							JOINT Neck
							{
								OFFSET -0.418800 17.814194 8.416900
								CHANNELS 3 Xrotation Yrotation Zrotation
								JOINT Head
								{
									OFFSET 0.000000 7.031097 3.806800
									CHANNELS 3 Xrotation Yrotation Zrotation
									JOINT HeadTop_End
									{
										OFFSET 0.000000 24.646606 12.978600
										CHANNELS 3 Xrotation Yrotation Zrotation
										End Site
										{
											OFFSET 0 0 0
										}
									}
								}
							}
						}
						JOINT LeftShoulder_virtual
						{
							OFFSET 0.000000 0.000000 0.000000
							CHANNELS 3 Xrotation Yrotation Zrotation
							JOINT LeftShoulder
							{
								OFFSET 8.476499 7.247704 -3.868750
								CHANNELS 3 Xrotation Yrotation Zrotation
								JOINT LeftShoulder_split
								{
									OFFSET 8.476499 7.247704 -3.868750
									CHANNELS 3 Xrotation Yrotation Zrotation
									JOINT LeftArm
									{
										OFFSET 9.308998 -2.777710 0.208600
										CHANNELS 3 Xrotation Yrotation Zrotation
										JOINT LeftForeArm
										{
											OFFSET 29.972298 0.000000 0.000000
											CHANNELS 3 Xrotation Yrotation Zrotation
											JOINT LeftHand
											{
												OFFSET 26.026505 0.000000 0.000000
												CHANNELS 3 Xrotation Yrotation Zrotation
												End Site
												{
													OFFSET 0 0 0
												}
											}
										}
									}
								}
							}
						}
						JOINT RightShoulder_virtual
						{
							OFFSET 0.000000 0.000000 0.000000
							CHANNELS 3 Xrotation Yrotation Zrotation
							JOINT RightShoulder
							{
								OFFSET -7.570500 7.247704 -3.868750
								CHANNELS 3 Xrotation Yrotation Zrotation
								JOINT RightShoulder_split
								{
									OFFSET -7.570500 7.247704 -3.868750
									CHANNELS 3 Xrotation Yrotation Zrotation
									JOINT RightArm
									{
										OFFSET -9.308998 -2.777710 0.208500
										CHANNELS 3 Xrotation Yrotation Zrotation
										JOINT RightForeArm
										{
											OFFSET -29.972300 0.000000 0.000000
											CHANNELS 3 Xrotation Yrotation Zrotation
											JOINT RightHand
											{
												OFFSET -26.026505 0.000000 0.000000
												CHANNELS 3 Xrotation Yrotation Zrotation
												End Site
												{
													OFFSET 0 0 0
												}
											}
										}
									}
								}
							}
						}
					}
				}
			}
		}
	}
}
MOTION
Frames: 10
Frame Time: 0.03333333
-26.170624 76.811462 -11.466709 0.000000 0.000000 0.000000 35.537020 7.957892 -3.168865 -58.566912 -18.361481 26.391276 32.499748 6.470551 -2.582125 9.549899 7.847862 -33.428435 -1.433956 0.432007 -0.306340 0.000000 0.000000 0.000000 35.969651 7.042655 -3.203265 -59.828584 -2.135159 -24.741882 42.065697 -0.671409 2.210648 -14.053975 -5.933103 21.979373 2.828665 0.465845 0.042328 0.000000 0.000000 0.000000 36.243723 5.391179 -3.474874 9.213258 0.807246 -0.079858 11.657305 1.875348 1.303934 0.918852 0.390306 0.171304 0.000000 0.000000 0.000000 10.386247 2.028528 1.110735 -0.565795 -1.766316 -2.556669 -30.260415 -11.216653 3.594386 0.000000 0.000000 0.000000 10.714928 1.895370 0.798517 0.777599 -20.883638 -10.172897 1.142728 0.294601 -2.584230 14.962281 -10.812397 -49.160881 -3.157747 -72.606475 -3.293019 0.000000 0.000000 0.000000 10.497182 2.204202 1.495311 2.808650 26.393582 7.652087 0.276157 2.968241 -0.078478 -4.888397 41.609704 18.272959 -0.927677 20.202865 1.389420 0.000000 0.000000 0.000000 
-25.045059 75.562309 -11.440571 0.000000 0.000000 0.000000 38.312450 8.013350 -2.977430 -64.310247 -17.650840 25.282282 35.491821 5.513504 -2.732793 8.656189 6.406069 -33.678642 -1.522872 0.317837 0.045902 0.000000 0.000000 0.000000 38.844075 6.611175 -2.749471 -63.571637 -0.948989 -26.073340 43.185210 0.213659 2.258428 -14.505652 -6.185690 23.025995 2.562637 0.545734 -0.069480 0.000000 0.000000 0.000000 39.297439 5.258444 -3.105151 9.460507 1.205820 0.017264 11.896305 2.032499 1.343890 0.932954 0.339363 0.216235 0.000000 0.000000 0.000000 10.602350 2.217221 1.092054 -0.686408 -1.927068 -2.739042 -32.092740 -12.091226 2.775481 0.000000 0.000000 0.000000 10.996565 2.059475 0.808621 0.782706 -21.520347 -9.788089 1.144913 0.155779 -2.768531 14.840408 -10.668403 -48.815977 -3.912859 -74.806458 -4.104411 0.000000 0.000000 0.000000 10.671472 2.388214 1.554707 2.787386 26.768761 7.795552 0.498664 2.887049 -0.183607 -7.406251 41.604701 15.252280 -1.220517 20.639143 1.500876 0.000000 0.000000 0.000000 
-23.861568 74.258163 -11.249508 0.000000 0.000000 0.000000 40.969513 8.405943 -2.694156 -70.077037 -16.659246 24.222689 38.687786 4.510490 -3.056143 7.475724 4.940302 -33.282590 -1.516004 0.203566 0.138577 0.000000 0.000000 0.000000 41.558286 6.514263 -2.213819 -67.056338 0.578366 -27.833245 44.679713 1.230281 2.459056 -14.946522 -6.427205 24.289271 2.333910 0.622734 -0.150282 0.000000 0.000000 0.000000 42.235694 5.310560 -2.576302 9.712272 1.625603 0.121449 12.059744 2.202066 1.336059 1.011896 0.253162 0.208982 0.000000 0.000000 0.000000 10.742463 2.417141 1.036434 -0.799390 -2.125143 -2.878563 -33.759429 -13.026990 1.889629 0.000000 0.000000 0.000000 11.189047 2.244243 0.804148 0.818778 -22.143654 -9.314725 1.284754 -0.090211 -3.010295 15.420742 -11.501245 -48.605064 -4.566136 -76.740700 -4.824207 0.000000 0.000000 0.000000 10.775556 2.570253 1.575404 2.768911 26.879812 8.044963 0.721909 2.793286 -0.213804 -10.923439 41.376490 12.948532 -1.470828 21.194673 1.483043 0.000000 0.000000 0.000000 
-22.671364 72.726051 -10.887310 0.000000 0.000000 0.000000 43.442257 9.146866 -2.296732 -75.648170 -15.505749 23.269348 42.049797 3.459981 -3.545024 6.148169 3.639334 -32.375011 -1.574405 0.103446 0.023869 0.000000 0.000000 0.000000 44.032908 6.892365 -1.619003 -70.150838 2.547999 -30.042655 46.702337 2.274537 2.789232 -15.690198 -6.812151 25.523509 2.464415 0.698999 -0.184669 0.000000 0.000000 0.000000 44.905629 5.642102 -1.885265 9.996654 2.042325 0.187751 12.209813 2.405342 1.302729 1.038106 0.177132 0.197930 0.000000 0.000000 0.000000 10.878863 2.643463 0.969738 -0.987367 -2.357191 -3.022947 -35.337251 -13.970259 0.924531 0.000000 0.000000 0.000000 11.357710 2.465840 0.805233 0.884652 -22.651330 -8.785239 1.491153 -0.294807 -3.221228 16.260828 -13.061728 -48.503058 -5.100644 -78.190257 -5.407007 0.000000 0.000000 0.000000 10.874702 2.761908 1.563820 2.793854 26.822933 8.282559 0.967628 2.665251 -0.174188 -14.638885 40.978321 10.877372 -1.644303 22.090760 1.367417 0.000000 0.000000 0.000000 
-21.580585 70.855591 -10.428448 0.000000 0.000000 0.000000 45.635451 10.204646 -1.779819 -80.802456 -14.388178 22.393711 45.564137 2.321252 -4.108337 4.615689 2.674324 -31.181487 -1.654054 0.008056 -0.181374 0.000000 0.000000 0.000000 46.258696 7.846602 -1.027316 -72.720245 4.990088 -32.601996 49.422866 3.252851 3.227448 -16.936304 -7.470563 26.546234 2.877750 0.770596 -0.157521 0.000000 0.000000 0.000000 47.204185 6.240519 -1.079594 10.346094 2.440947 0.172243 12.413298 2.664778 1.271105 0.965269 0.109503 0.262133 0.000000 0.000000 0.000000 11.091153 2.917461 0.915346 -1.385709 -2.632570 -3.216171 -36.936389 -14.861242 -0.121161 0.000000 0.000000 0.000000 11.577328 2.735503 0.831239 0.987956 -22.954268 -8.219672 1.649624 -0.411183 -3.323962 16.900717 -14.970052 -48.478975 -5.689006 -79.046011 -5.991825 0.000000 0.000000 0.000000 11.052469 2.984280 1.543910 2.883776 26.739224 8.394826 1.207189 2.554304 -0.030711 -17.759523 40.579657 8.450372 -1.691596 23.204439 1.215244 0.000000 0.000000 0.000000 
-20.631750 68.612839 -9.911880 0.000000 0.000000 0.000000 47.511759 11.392271 -1.168548 -85.362482 -13.461416 21.573631 49.149198 1.054586 -4.639399 2.874175 2.136993 -29.971526 -1.729759 -0.079935 -0.342530 0.000000 0.000000 0.000000 48.202346 9.223676 -0.492908 -74.688487 7.832034 -35.372573 52.824704 4.176352 3.712391 -18.644139 -8.409683 27.384947 3.309416 0.830206 -0.076500 0.000000 0.000000 0.000000 49.124438 7.106232 -0.261186 10.746650 2.845418 0.068028 12.729147 3.003372 1.264685 0.915673 0.109441 0.304636 0.000000 0.000000 0.000000 11.441126 3.252821 0.902865 -2.081284 -2.928093 -3.468596 -38.656364 -15.704405 -1.230230 0.000000 0.000000 0.000000 11.906057 3.062390 0.891942 1.117535 -22.986718 -7.633636 1.620349 -0.433885 -3.323362 16.942750 -16.908130 -48.565534 -6.490752 -79.335762 -6.696791 0.000000 0.000000 0.000000 11.364082 3.264307 1.537201 3.026120 26.795920 8.340478 1.294268 2.422715 0.185840 -19.894340 40.189861 5.338405 -1.602917 24.078155 1.078602 0.000000 0.000000 0.000000 
-19.849361 66.078705 -9.363789 0.000000 0.000000 0.000000 49.072218 12.594578 -0.557571 -89.297108 -12.823526 20.822516 52.659492 -0.339946 -5.043692 0.944356 2.057811 -29.126874 -1.813187 -0.151104 -0.333936 0.000000 0.000000 0.000000 49.875551 10.726702 -0.009650 -76.020736 10.954408 -38.211910 56.626626 5.092513 4.199277 -20.708220 -9.551687 28.140461 3.690715 0.873109 0.035943 0.000000 0.000000 0.000000 50.677114 8.138637 0.501464 11.155233 3.270018 -0.092347 13.184319 3.401342 1.304076 0.827970 0.091746 0.405190 0.000000 0.000000 0.000000 11.964331 3.639548 0.951976 -3.066011 -3.243789 -3.745856 -40.593245 -16.481863 -2.352210 0.000000 0.000000 0.000000 12.371832 3.448749 0.987323 1.259751 -22.719579 -7.054338 1.537559 -0.449682 -3.231552 16.344498 -18.741769 -48.756465 -7.392509 -79.170758 -7.453190 0.000000 0.000000 0.000000 11.825872 3.607934 1.575600 3.202014 27.081688 8.072373 1.264331 2.389359 0.332448 -21.275127 39.771300 1.632282 -1.448620 24.304637 1.008679 0.000000 0.000000 0.000000 
-19.233200 63.449532 -8.816628 0.000000 0.000000 0.000000 50.342698 13.654147 0.007199 -92.597209 -12.474247 20.163830 55.971713 -1.784532 -5.284143 -1.043931 2.383784 -28.781686 -1.987022 -0.209353 -0.122438 0.000000 0.000000 0.000000 51.294144 12.046479 0.429561 -76.732100 14.118302 -41.026539 60.528105 6.011303 4.681839 -22.922656 -10.792135 28.921552 3.937002 0.894718 0.163515 0.000000 0.000000 0.000000 52.009145 9.238726 1.119918 11.527429 3.721844 -0.271702 13.774590 3.832870 1.389484 0.780459 0.014432 0.479134 0.000000 0.000000 0.000000 12.642216 4.060582 1.068376 -4.312433 -3.565604 -4.008860 -42.814894 -17.177019 -3.447522 0.000000 0.000000 0.000000 12.965696 3.867863 1.115079 1.409224 -22.225982 -6.484096 1.417965 -0.554931 -3.110427 15.287888 -20.369803 -49.110047 -8.433785 -78.866296 -8.328892 0.000000 0.000000 0.000000 12.423008 4.005436 1.674883 3.389746 27.586808 7.626633 1.048801 2.467081 0.400400 -22.524562 39.244303 -2.178437 -1.277505 23.951030 1.021896 0.000000 0.000000 0.000000 
-18.756588 60.930340 -8.235435 0.000000 0.000000 0.000000 51.436399 14.531193 0.408661 -95.358108 -12.345499 19.694248 58.981190 -3.150679 -5.391770 -2.847109 3.038875 -28.949286 -2.265261 -0.262908 0.264214 0.000000 0.000000 0.000000 52.532805 12.954860 0.822058 -76.872256 17.127186 -43.732414 64.134418 6.914410 5.181735 -24.965721 -12.032025 29.923813 3.874010 0.885618 0.262022 0.000000 0.000000 0.000000 53.221029 10.293019 1.548027 11.801758 4.186892 -0.423348 14.454483 4.256692 1.523050 0.808300 -0.143725 0.460270 0.000000 0.000000 0.000000 13.416511 4.476721 1.248868 -5.690375 -3.860994 -4.205613 -45.340595 -17.757218 -4.470545 0.000000 0.000000 0.000000 13.636975 4.288713 1.266892 1.549298 -21.611410 -5.938410 1.495896 -0.830387 -2.955811 13.916242 -21.773479 -49.664870 -9.375666 -78.709037 -9.160552 0.000000 0.000000 0.000000 13.099539 4.414148 1.832441 3.571384 28.171759 7.035782 0.790328 2.678348 0.352518 -24.334487 38.462315 -5.381819 -1.187662 23.686246 1.123223 0.000000 0.000000 0.000000 
-18.408073 58.714134 -7.597157 0.000000 0.000000 0.000000 52.401129 15.175869 0.601678 -97.645300 -12.409821 19.480910 61.581266 -4.350624 -5.420379 -4.300761 3.898943 -29.484615 -2.622504 -0.326965 0.746454 0.000000 0.000000 0.000000 53.657676 13.447476 1.100020 -76.504553 19.802296 -46.188372 67.154932 7.744798 5.744047 -26.664014 -13.222574 31.142784 3.527590 0.852170 0.308236 0.000000 0.000000 0.000000 54.445852 11.206024 1.732809 11.961751 4.631366 -0.512215 15.172504 4.625414 1.688022 0.790100 -0.377839 0.517868 0.000000 0.000000 0.000000 14.236145 4.844993 1.466019 -7.057721 -4.108341 -4.294706 -48.097157 -18.146392 -5.360259 0.000000 0.000000 0.000000 14.334412 4.668472 1.438739 1.671403 -21.040517 -5.432439 1.625004 -1.216435 -2.776701 12.505749 -22.807837 -50.418291 -10.315356 -78.963523 -10.077230 0.000000 0.000000 0.000000 13.795312 4.784012 2.034626 3.730354 28.644982 6.336951 0.591109 2.980388 0.262604 -27.107798 37.452157 -7.372450 -1.224179 24.477407 1.283086 0.000000 0.000000 0.000000 
